<mxfile host="app.diagrams.net" agent="Mozilla/5.0 (Windows NT 10.0; Win64; x64) AppleWebKit/537.36 (KHTML, like Gecko) Chrome/131.0.0.0 Safari/537.36" version="26.0.4">
  <diagram name="Seite-1" id="M-o3aS57c-1qL8Xr9ur_">
    <mxGraphModel dx="656" dy="645" grid="1" gridSize="10" guides="1" tooltips="1" connect="1" arrows="1" fold="1" page="1" pageScale="1" pageWidth="583" pageHeight="413" math="0" shadow="0">
      <root>
        <mxCell id="0" />
        <mxCell id="1" parent="0" />
        <mxCell id="ATyxKJeGwojh5BwoMABa-1" value="Client Anfragen" style="rounded=1;whiteSpace=wrap;html=1;" vertex="1" parent="1">
          <mxGeometry x="60" y="40" width="120" height="60" as="geometry" />
        </mxCell>
        <mxCell id="ATyxKJeGwojh5BwoMABa-2" value="Client Anfragen" style="rounded=1;whiteSpace=wrap;html=1;" vertex="1" parent="1">
          <mxGeometry x="231" y="40" width="120" height="60" as="geometry" />
        </mxCell>
        <mxCell id="ATyxKJeGwojh5BwoMABa-3" value="Client Anfragen" style="rounded=1;whiteSpace=wrap;html=1;" vertex="1" parent="1">
          <mxGeometry x="400" y="40" width="120" height="60" as="geometry" />
        </mxCell>
        <mxCell id="ATyxKJeGwojh5BwoMABa-4" value="API" style="rounded=1;whiteSpace=wrap;html=1;movable=0;resizable=0;rotatable=0;deletable=0;editable=0;locked=1;connectable=0;" vertex="1" parent="1">
          <mxGeometry x="60" y="140" width="460" height="50" as="geometry" />
        </mxCell>
        <mxCell id="ATyxKJeGwojh5BwoMABa-5" style="edgeStyle=orthogonalEdgeStyle;rounded=0;orthogonalLoop=1;jettySize=auto;html=1;startArrow=classic;startFill=1;" edge="1" parent="1" source="ATyxKJeGwojh5BwoMABa-1">
          <mxGeometry relative="1" as="geometry">
            <mxPoint x="120" y="140" as="targetPoint" />
          </mxGeometry>
        </mxCell>
        <mxCell id="ATyxKJeGwojh5BwoMABa-6" style="edgeStyle=orthogonalEdgeStyle;rounded=0;orthogonalLoop=1;jettySize=auto;html=1;startArrow=classic;startFill=1;" edge="1" parent="1">
          <mxGeometry relative="1" as="geometry">
            <mxPoint x="292" y="100" as="sourcePoint" />
            <mxPoint x="292" y="140" as="targetPoint" />
            <Array as="points">
              <mxPoint x="292" y="121" />
              <mxPoint x="292" y="121" />
            </Array>
          </mxGeometry>
        </mxCell>
        <mxCell id="ATyxKJeGwojh5BwoMABa-7" style="edgeStyle=orthogonalEdgeStyle;rounded=0;orthogonalLoop=1;jettySize=auto;html=1;startArrow=classic;startFill=1;" edge="1" parent="1">
          <mxGeometry relative="1" as="geometry">
            <mxPoint x="459.77" y="100" as="sourcePoint" />
            <mxPoint x="459.77" y="140" as="targetPoint" />
            <Array as="points">
              <mxPoint x="460" y="121" />
              <mxPoint x="460" y="121" />
            </Array>
          </mxGeometry>
        </mxCell>
        <mxCell id="ATyxKJeGwojh5BwoMABa-28" value="" style="group;movable=0;resizable=0;rotatable=0;deletable=0;editable=0;locked=1;connectable=0;" vertex="1" connectable="0" parent="1">
          <mxGeometry x="160" y="230" width="71" height="120" as="geometry" />
        </mxCell>
        <mxCell id="ATyxKJeGwojh5BwoMABa-19" value="&lt;font style=&quot;font-size: 11px;&quot;&gt;Service Komponente&lt;/font&gt;" style="rounded=1;whiteSpace=wrap;html=1;verticalAlign=top;movable=0;resizable=0;rotatable=0;deletable=0;editable=0;locked=1;connectable=0;" vertex="1" parent="ATyxKJeGwojh5BwoMABa-28">
          <mxGeometry width="71" height="120" as="geometry" />
        </mxCell>
        <mxCell id="ATyxKJeGwojh5BwoMABa-20" value="Modul" style="rounded=1;whiteSpace=wrap;html=1;movable=0;resizable=0;rotatable=0;deletable=0;editable=0;locked=1;connectable=0;" vertex="1" parent="ATyxKJeGwojh5BwoMABa-28">
          <mxGeometry x="8.875" y="46.15384615384615" width="53.25" height="27.692307692307693" as="geometry" />
        </mxCell>
        <mxCell id="ATyxKJeGwojh5BwoMABa-21" value="Modul" style="rounded=1;whiteSpace=wrap;html=1;movable=0;resizable=0;rotatable=0;deletable=0;editable=0;locked=1;connectable=0;" vertex="1" parent="ATyxKJeGwojh5BwoMABa-28">
          <mxGeometry x="8.875" y="83.07692307692308" width="53.25" height="27.692307692307693" as="geometry" />
        </mxCell>
        <mxCell id="ATyxKJeGwojh5BwoMABa-29" value="" style="group;movable=0;resizable=0;rotatable=0;deletable=0;editable=0;locked=1;connectable=0;" vertex="1" connectable="0" parent="1">
          <mxGeometry x="256" y="230" width="71" height="120" as="geometry" />
        </mxCell>
        <mxCell id="ATyxKJeGwojh5BwoMABa-30" value="&lt;font style=&quot;font-size: 11px;&quot;&gt;Service Komponente&lt;/font&gt;" style="rounded=1;whiteSpace=wrap;html=1;verticalAlign=top;movable=0;resizable=0;rotatable=0;deletable=0;editable=0;locked=1;connectable=0;" vertex="1" parent="ATyxKJeGwojh5BwoMABa-29">
          <mxGeometry width="71" height="120" as="geometry" />
        </mxCell>
        <mxCell id="ATyxKJeGwojh5BwoMABa-31" value="Modul" style="rounded=1;whiteSpace=wrap;html=1;movable=0;resizable=0;rotatable=0;deletable=0;editable=0;locked=1;connectable=0;" vertex="1" parent="ATyxKJeGwojh5BwoMABa-29">
          <mxGeometry x="8.875" y="46.15384615384615" width="53.25" height="27.692307692307693" as="geometry" />
        </mxCell>
        <mxCell id="ATyxKJeGwojh5BwoMABa-32" value="Modul" style="rounded=1;whiteSpace=wrap;html=1;movable=0;resizable=0;rotatable=0;deletable=0;editable=0;locked=1;connectable=0;" vertex="1" parent="ATyxKJeGwojh5BwoMABa-29">
          <mxGeometry x="8.875" y="83.07692307692308" width="53.25" height="27.692307692307693" as="geometry" />
        </mxCell>
        <mxCell id="ATyxKJeGwojh5BwoMABa-33" value="" style="group;movable=0;resizable=0;rotatable=0;deletable=0;editable=0;locked=1;connectable=0;" vertex="1" connectable="0" parent="1">
          <mxGeometry x="60" y="230" width="71" height="120" as="geometry" />
        </mxCell>
        <mxCell id="ATyxKJeGwojh5BwoMABa-34" value="&lt;font style=&quot;font-size: 11px;&quot;&gt;Service Komponente&lt;/font&gt;" style="rounded=1;whiteSpace=wrap;html=1;verticalAlign=top;movable=0;resizable=0;rotatable=0;deletable=0;editable=0;locked=1;connectable=0;" vertex="1" parent="ATyxKJeGwojh5BwoMABa-33">
          <mxGeometry width="71" height="120" as="geometry" />
        </mxCell>
        <mxCell id="ATyxKJeGwojh5BwoMABa-35" value="Modul" style="rounded=1;whiteSpace=wrap;html=1;movable=0;resizable=0;rotatable=0;deletable=0;editable=0;locked=1;connectable=0;" vertex="1" parent="ATyxKJeGwojh5BwoMABa-33">
          <mxGeometry x="8.875" y="46.15384615384615" width="53.25" height="27.692307692307693" as="geometry" />
        </mxCell>
        <mxCell id="ATyxKJeGwojh5BwoMABa-36" value="Modul" style="rounded=1;whiteSpace=wrap;html=1;movable=0;resizable=0;rotatable=0;deletable=0;editable=0;locked=1;connectable=0;" vertex="1" parent="ATyxKJeGwojh5BwoMABa-33">
          <mxGeometry x="8.875" y="83.07692307692308" width="53.25" height="27.692307692307693" as="geometry" />
        </mxCell>
        <mxCell id="ATyxKJeGwojh5BwoMABa-37" value="" style="group;movable=0;resizable=0;rotatable=0;deletable=0;editable=0;locked=1;connectable=0;" vertex="1" connectable="0" parent="1">
          <mxGeometry x="351" y="230" width="71" height="120" as="geometry" />
        </mxCell>
        <mxCell id="ATyxKJeGwojh5BwoMABa-38" value="&lt;font style=&quot;font-size: 11px;&quot;&gt;Service Komponente&lt;/font&gt;" style="rounded=1;whiteSpace=wrap;html=1;verticalAlign=top;movable=0;resizable=0;rotatable=0;deletable=0;editable=0;locked=1;connectable=0;" vertex="1" parent="ATyxKJeGwojh5BwoMABa-37">
          <mxGeometry width="71" height="120" as="geometry" />
        </mxCell>
        <mxCell id="ATyxKJeGwojh5BwoMABa-39" value="Modul" style="rounded=1;whiteSpace=wrap;html=1;movable=0;resizable=0;rotatable=0;deletable=0;editable=0;locked=1;connectable=0;" vertex="1" parent="ATyxKJeGwojh5BwoMABa-37">
          <mxGeometry x="8.875" y="46.15384615384615" width="53.25" height="27.692307692307693" as="geometry" />
        </mxCell>
        <mxCell id="ATyxKJeGwojh5BwoMABa-40" value="Modul" style="rounded=1;whiteSpace=wrap;html=1;movable=0;resizable=0;rotatable=0;deletable=0;editable=0;locked=1;connectable=0;" vertex="1" parent="ATyxKJeGwojh5BwoMABa-37">
          <mxGeometry x="8.875" y="83.07692307692308" width="53.25" height="27.692307692307693" as="geometry" />
        </mxCell>
        <mxCell id="ATyxKJeGwojh5BwoMABa-41" value="" style="group;movable=0;resizable=0;rotatable=0;deletable=0;editable=0;locked=1;connectable=0;" vertex="1" connectable="0" parent="1">
          <mxGeometry x="449" y="230" width="71" height="120" as="geometry" />
        </mxCell>
        <mxCell id="ATyxKJeGwojh5BwoMABa-42" value="&lt;font style=&quot;font-size: 11px;&quot;&gt;Service Komponente&lt;/font&gt;" style="rounded=1;whiteSpace=wrap;html=1;verticalAlign=top;movable=0;resizable=0;rotatable=0;deletable=0;editable=0;locked=1;connectable=0;" vertex="1" parent="ATyxKJeGwojh5BwoMABa-41">
          <mxGeometry width="71" height="120" as="geometry" />
        </mxCell>
        <mxCell id="ATyxKJeGwojh5BwoMABa-43" value="Modul" style="rounded=1;whiteSpace=wrap;html=1;movable=0;resizable=0;rotatable=0;deletable=0;editable=0;locked=1;connectable=0;" vertex="1" parent="ATyxKJeGwojh5BwoMABa-41">
          <mxGeometry x="8.875" y="46.15384615384615" width="53.25" height="27.692307692307693" as="geometry" />
        </mxCell>
        <mxCell id="ATyxKJeGwojh5BwoMABa-44" value="Modul" style="rounded=1;whiteSpace=wrap;html=1;movable=0;resizable=0;rotatable=0;deletable=0;editable=0;locked=1;connectable=0;" vertex="1" parent="ATyxKJeGwojh5BwoMABa-41">
          <mxGeometry x="8.875" y="83.07692307692308" width="53.25" height="27.692307692307693" as="geometry" />
        </mxCell>
        <mxCell id="ATyxKJeGwojh5BwoMABa-46" style="rounded=0;orthogonalLoop=1;jettySize=auto;html=1;startArrow=classic;startFill=1;" edge="1" parent="1">
          <mxGeometry relative="1" as="geometry">
            <mxPoint x="95.25" y="190" as="sourcePoint" />
            <mxPoint x="95.25" y="230" as="targetPoint" />
          </mxGeometry>
        </mxCell>
        <mxCell id="ATyxKJeGwojh5BwoMABa-47" value="rest" style="edgeLabel;html=1;align=center;verticalAlign=middle;resizable=0;points=[];" vertex="1" connectable="0" parent="ATyxKJeGwojh5BwoMABa-46">
          <mxGeometry x="0.0218" relative="1" as="geometry">
            <mxPoint x="-15" as="offset" />
          </mxGeometry>
        </mxCell>
        <mxCell id="ATyxKJeGwojh5BwoMABa-48" style="rounded=0;orthogonalLoop=1;jettySize=auto;html=1;startArrow=classic;startFill=1;" edge="1" parent="1">
          <mxGeometry relative="1" as="geometry">
            <mxPoint x="195.4" y="190" as="sourcePoint" />
            <mxPoint x="195.4" y="230" as="targetPoint" />
          </mxGeometry>
        </mxCell>
        <mxCell id="ATyxKJeGwojh5BwoMABa-49" value="rest" style="edgeLabel;html=1;align=center;verticalAlign=middle;resizable=0;points=[];" vertex="1" connectable="0" parent="ATyxKJeGwojh5BwoMABa-48">
          <mxGeometry x="0.0218" relative="1" as="geometry">
            <mxPoint x="-15" as="offset" />
          </mxGeometry>
        </mxCell>
        <mxCell id="ATyxKJeGwojh5BwoMABa-50" style="rounded=0;orthogonalLoop=1;jettySize=auto;html=1;startArrow=classic;startFill=1;" edge="1" parent="1">
          <mxGeometry relative="1" as="geometry">
            <mxPoint x="292" y="190" as="sourcePoint" />
            <mxPoint x="292" y="230" as="targetPoint" />
          </mxGeometry>
        </mxCell>
        <mxCell id="ATyxKJeGwojh5BwoMABa-51" value="rest" style="edgeLabel;html=1;align=center;verticalAlign=middle;resizable=0;points=[];" vertex="1" connectable="0" parent="ATyxKJeGwojh5BwoMABa-50">
          <mxGeometry x="0.0218" relative="1" as="geometry">
            <mxPoint x="-15" as="offset" />
          </mxGeometry>
        </mxCell>
        <mxCell id="ATyxKJeGwojh5BwoMABa-52" style="rounded=0;orthogonalLoop=1;jettySize=auto;html=1;startArrow=classic;startFill=1;" edge="1" parent="1">
          <mxGeometry relative="1" as="geometry">
            <mxPoint x="386.4" y="190" as="sourcePoint" />
            <mxPoint x="386.4" y="230" as="targetPoint" />
          </mxGeometry>
        </mxCell>
        <mxCell id="ATyxKJeGwojh5BwoMABa-53" value="rest" style="edgeLabel;html=1;align=center;verticalAlign=middle;resizable=0;points=[];" vertex="1" connectable="0" parent="ATyxKJeGwojh5BwoMABa-52">
          <mxGeometry x="0.0218" relative="1" as="geometry">
            <mxPoint x="-15" as="offset" />
          </mxGeometry>
        </mxCell>
        <mxCell id="ATyxKJeGwojh5BwoMABa-54" style="rounded=0;orthogonalLoop=1;jettySize=auto;html=1;startArrow=classic;startFill=1;" edge="1" parent="1">
          <mxGeometry relative="1" as="geometry">
            <mxPoint x="484.4" y="186" as="sourcePoint" />
            <mxPoint x="484.4" y="226" as="targetPoint" />
          </mxGeometry>
        </mxCell>
        <mxCell id="ATyxKJeGwojh5BwoMABa-55" value="rest" style="edgeLabel;html=1;align=center;verticalAlign=middle;resizable=0;points=[];" vertex="1" connectable="0" parent="ATyxKJeGwojh5BwoMABa-54">
          <mxGeometry x="0.0218" relative="1" as="geometry">
            <mxPoint x="-15" as="offset" />
          </mxGeometry>
        </mxCell>
      </root>
    </mxGraphModel>
  </diagram>
</mxfile>
